<svg xmlns:xlink="http://www.w3.org/1999/xlink" xmlns="http://www.w3.org/2000/svg" class="w-5 h-5 text-gray-900 dark:text-white" fill="currentColor" viewBox="0 0 24 24" width="24"  height="24" ><path d="M12 .5C5.65.5.5 5.8.5 12.3c0 5.2 3.44 9.6 8.2 11.2.6.1.8-.3.8-.6v-2.1c-3.34.7-4.04-1.4-4.04-1.4-.55-1.4-1.35-1.8-1.35-1.8-1.1-.8.08-.8.08-.8 1.2.1 1.85 1.3 1.85 1.3 1.1 1.9 2.9 1.3 3.6 1 .1-.8.4-1.3.7-1.6-2.66-.3-5.45-1.4-5.45-6.1 0-1.3.45-2.4 1.2-3.2-.1-.3-.5-1.6.1-3.3 0 0 1-.3 3.3 1.2.95-.3 1.95-.4 2.95-.4s2 .1 2.95.4c2.3-1.5 3.3-1.2 3.3-1.2.6 1.7.2 3 .1 3.3.75.8 1.2 1.9 1.2 3.2 0 4.7-2.8 5.8-5.46 6.1.4.3.75 1 .75 2v3c0 .3.2.7.8.6 4.76-1.6 8.2-6 8.2-11.2C23.5 5.8 18.35.5 12 .5z" fill="#FFFFFF"></path></svg>